#  using: ply2obj v1.8
#   from: uvlayout v2.09.04
mtllib Simple_Shelf.mtl
# 60 vertices
v -77.55500 102.19600 -11.84700
v -70.62340 102.19600 -11.84700
v -77.55500 124.35861 -11.84700
v -70.62340 124.35861 -11.84700
v -77.55500 124.35861 -13.90363
v -70.62340 124.35861 -13.90363
v -77.55500 102.19600 -13.90363
v -70.62340 102.19600 -13.90363
v -211.95970 105.73381 -11.88343
v -205.49712 105.73381 -11.88343
v -211.95970 120.63977 -0.76900
v -205.49712 120.63977 -0.76900
v -211.95970 120.71548 -2.31454
v -205.49712 120.71548 -2.31454
v -211.95970 107.68047 -12.29317
v -205.49712 107.68047 -12.29317
v -234.75377 122.25486 13.90365
v -142.79723 121.49524 13.90365
v -50.84071 122.25486 13.90365
v -234.75377 124.80981 13.90365
v -142.79723 124.05019 13.90365
v -50.84071 124.80981 13.90365
v -234.75377 124.80981 -13.90363
v -142.79723 124.05019 -13.90363
v -50.84071 124.80981 -13.90363
v -234.75377 122.25486 -13.90363
v -142.79723 121.49524 -13.90363
v -50.84071 122.25486 -13.90363
v -212.34200 102.33883 -11.84700
v -205.41039 102.33883 -11.84700
v -212.34200 124.50144 -11.84700
v -205.41039 124.50144 -11.84700
v -212.34200 124.50144 -13.90363
v -205.41039 124.50144 -13.90363
v -212.34200 102.33883 -13.90363
v -205.41039 102.33883 -13.90363
v -212.30484 120.63977 3.29225
v -205.48449 120.63977 3.29225
v -212.30484 122.31804 3.29225
v -205.48449 122.31804 3.29225
v -212.30484 122.31804 -11.94143
v -205.48449 122.31804 -11.94143
v -212.30484 120.63977 -11.94143
v -205.48449 120.63977 -11.94143
v -77.50122 120.49695 3.29225
v -70.68087 120.49695 3.29225
v -77.50122 122.17521 3.29225
v -70.68087 122.17521 3.29225
v -77.50122 122.17521 -11.94143
v -70.68087 122.17521 -11.94143
v -77.50122 120.49695 -11.94143
v -70.68087 120.49695 -11.94143
v -77.49031 105.59098 -11.88343
v -70.87845 105.59098 -11.88343
v -77.49031 120.49695 -0.76900
v -70.87845 120.49695 -0.76900
v -77.49031 120.57265 -2.31454
v -70.87845 120.57265 -2.31454
v -77.49031 107.53763 -12.29317
v -70.87845 107.53763 -12.29317
# 176 normals
vn 0.000000 0.000000 1.000000
vn 0.000000 0.000000 1.000000
vn 0.000000 0.000000 1.000000
vn 0.000000 0.000000 1.000000
vn 0.000000 1.000000 0.000000
vn 0.000000 1.000000 0.000000
vn 0.000000 1.000000 0.000000
vn 0.000000 1.000000 0.000000
vn 0.000000 0.000000 -1.000000
vn 0.000000 0.000000 -1.000000
vn 0.000000 0.000000 -1.000000
vn 0.000000 0.000000 -1.000000
vn 0.000000 -1.000000 0.000000
vn 0.000000 -1.000000 0.000000
vn 0.000000 -1.000000 0.000000
vn 0.000000 -1.000000 0.000000
vn 1.000000 0.000000 0.000000
vn 1.000000 0.000000 0.000000
vn 1.000000 0.000000 0.000000
vn 1.000000 0.000000 0.000000
vn -1.000000 0.000000 0.000000
vn -1.000000 0.000000 0.000000
vn -1.000000 0.000000 0.000000
vn -1.000000 0.000000 0.000000
vn 0.000000 -0.597693 0.801593
vn 0.000000 -0.597693 0.801593
vn 0.000000 -0.597693 0.801593
vn 0.000000 -0.597693 0.801593
vn 0.000000 0.998718 0.048923
vn 0.000000 0.998718 0.048923
vn 0.000000 0.998718 0.048923
vn 0.000000 0.998718 0.048923
vn 0.000000 0.607795 -0.794024
vn 0.000000 0.607795 -0.794024
vn 0.000000 0.607795 -0.794024
vn 0.000000 0.607795 -0.794024
vn 0.000000 -0.205945 -0.978545
vn 0.000000 -0.205945 -0.978545
vn 0.000000 -0.205945 -0.978545
vn 0.000000 -0.205945 -0.978545
vn 1.000000 0.000000 0.000000
vn 1.000000 0.000000 0.000000
vn 1.000000 0.000000 0.000000
vn 1.000000 0.000000 0.000000
vn -1.000000 0.000000 0.000000
vn -1.000000 0.000000 0.000000
vn -1.000000 0.000000 0.000000
vn -1.000000 0.000000 0.000000
vn 0.000000 0.000000 1.000000
vn 0.000000 0.000000 1.000000
vn 0.000000 0.000000 1.000000
vn 0.000000 0.000000 1.000000
vn 0.000000 0.000000 1.000000
vn 0.000000 0.000000 1.000000
vn 0.008179 0.999939 0.000000
vn 0.000000 1.000000 0.000000
vn 0.000000 1.000000 0.000000
vn 0.008179 0.999939 0.000000
vn -0.008179 0.999939 0.000000
vn -0.008179 0.999939 0.000000
vn 0.000000 0.000000 -1.000000
vn 0.000000 0.000000 -1.000000
vn 0.000000 0.000000 -1.000000
vn 0.000000 0.000000 -1.000000
vn 0.000000 0.000000 -1.000000
vn 0.000000 0.000000 -1.000000
vn -0.008179 -0.999939 0.000000
vn 0.000000 -1.000000 0.000000
vn 0.000000 -1.000000 0.000000
vn -0.008179 -0.999939 0.000000
vn 0.008179 -0.999939 0.000000
vn 0.008179 -0.999939 0.000000
vn 1.000000 0.000000 0.000000
vn 1.000000 0.000000 0.000000
vn 1.000000 0.000000 0.000000
vn 1.000000 0.000000 0.000000
vn -1.000000 0.000000 0.000000
vn -1.000000 0.000000 0.000000
vn -1.000000 0.000000 0.000000
vn -1.000000 0.000000 0.000000
vn 0.000000 0.000000 1.000000
vn 0.000000 0.000000 1.000000
vn 0.000000 0.000000 1.000000
vn 0.000000 0.000000 1.000000
vn 0.000000 1.000000 0.000000
vn 0.000000 1.000000 0.000000
vn 0.000000 1.000000 0.000000
vn 0.000000 1.000000 0.000000
vn 0.000000 0.000000 -1.000000
vn 0.000000 0.000000 -1.000000
vn 0.000000 0.000000 -1.000000
vn 0.000000 0.000000 -1.000000
vn 0.000000 -1.000000 0.000000
vn 0.000000 -1.000000 0.000000
vn 0.000000 -1.000000 0.000000
vn 0.000000 -1.000000 0.000000
vn 1.000000 0.000000 0.000000
vn 1.000000 0.000000 0.000000
vn 1.000000 0.000000 0.000000
vn 1.000000 0.000000 0.000000
vn -1.000000 0.000000 0.000000
vn -1.000000 0.000000 0.000000
vn -1.000000 0.000000 0.000000
vn -1.000000 0.000000 0.000000
vn 0.000000 0.000000 1.000000
vn 0.000000 0.000000 1.000000
vn 0.000000 0.000000 1.000000
vn 0.000000 0.000000 1.000000
vn 0.000000 1.000000 0.000000
vn 0.000000 1.000000 0.000000
vn 0.000000 1.000000 0.000000
vn 0.000000 1.000000 0.000000
vn 0.000000 0.000000 -1.000000
vn 0.000000 0.000000 -1.000000
vn 0.000000 0.000000 -1.000000
vn 0.000000 0.000000 -1.000000
vn 0.000000 -1.000000 0.000000
vn 0.000000 -1.000000 0.000000
vn 0.000000 -1.000000 0.000000
vn 0.000000 -1.000000 0.000000
vn 1.000000 0.000000 0.000000
vn 1.000000 0.000000 0.000000
vn 1.000000 0.000000 0.000000
vn 1.000000 0.000000 0.000000
vn -1.000000 0.000000 0.000000
vn -1.000000 0.000000 0.000000
vn -1.000000 0.000000 0.000000
vn -1.000000 0.000000 0.000000
vn 0.000000 0.000000 1.000000
vn 0.000000 0.000000 1.000000
vn 0.000000 0.000000 1.000000
vn 0.000000 0.000000 1.000000
vn 0.000000 1.000000 0.000000
vn 0.000000 1.000000 0.000000
vn 0.000000 1.000000 0.000000
vn 0.000000 1.000000 0.000000
vn 0.000000 0.000000 -1.000000
vn 0.000000 0.000000 -1.000000
vn 0.000000 0.000000 -1.000000
vn 0.000000 0.000000 -1.000000
vn 0.000000 -1.000000 0.000000
vn 0.000000 -1.000000 0.000000
vn 0.000000 -1.000000 0.000000
vn 0.000000 -1.000000 0.000000
vn 1.000000 0.000000 0.000000
vn 1.000000 0.000000 0.000000
vn 1.000000 0.000000 0.000000
vn 1.000000 0.000000 0.000000
vn -1.000000 0.000000 0.000000
vn -1.000000 0.000000 0.000000
vn -1.000000 0.000000 0.000000
vn -1.000000 0.000000 0.000000
vn 0.000000 -0.597693 0.801593
vn 0.000000 -0.597693 0.801593
vn 0.000000 -0.597693 0.801593
vn 0.000000 -0.597693 0.801593
vn 0.000000 0.998718 0.048923
vn 0.000000 0.998718 0.048923
vn 0.000000 0.998718 0.048923
vn 0.000000 0.998718 0.048923
vn 0.000000 0.607795 -0.794024
vn 0.000000 0.607795 -0.794024
vn 0.000000 0.607795 -0.794024
vn 0.000000 0.607795 -0.794024
vn 0.000000 -0.205945 -0.978545
vn 0.000000 -0.205945 -0.978545
vn 0.000000 -0.205945 -0.978545
vn 0.000000 -0.205945 -0.978545
vn 1.000000 0.000000 0.000000
vn 1.000000 0.000000 0.000000
vn 1.000000 0.000000 0.000000
vn 1.000000 0.000000 0.000000
vn -1.000000 0.000000 0.000000
vn -1.000000 0.000000 0.000000
vn -1.000000 0.000000 0.000000
vn -1.000000 0.000000 0.000000
# 103 uv coords
vt 0.498325 0.180020
vt 0.498486 0.166558
vt 0.500224 0.020434
vt 0.015201 0.174809
vt 0.015361 0.161421
vt 0.001945 0.161278
vt 0.003564 0.015185
vt 0.016994 0.015344
vt 0.017276 0.001945
vt 0.500384 0.006993
vt 0.496590 0.326138
vt 0.013554 0.320876
vt 0.981596 0.172910
vt 0.981436 0.186286
vt 0.983476 0.013429
vt 0.983438 0.026836
vt 0.996869 0.027001
vt 0.995011 0.173091
vt 0.979615 0.332348
vt 0.930615 0.433318
vt 0.931018 0.513372
vt 0.895182 0.513554
vt 0.894781 0.433531
vt 0.930560 0.424466
vt 0.894726 0.424747
vt 0.893961 0.335903
vt 0.929795 0.335603
vt 0.929868 0.344420
vt 0.894034 0.344720
vt 0.938682 0.344349
vt 0.939380 0.424386
vt 0.885912 0.424828
vt 0.885214 0.344792
vt 0.109603 0.916782
vt 0.110012 0.996835
vt 0.074178 0.997020
vt 0.073769 0.916997
vt 0.109547 0.907931
vt 0.073713 0.908213
vt 0.072949 0.819370
vt 0.108783 0.819066
vt 0.108856 0.827885
vt 0.073023 0.828186
vt 0.117670 0.827813
vt 0.118368 0.907850
vt 0.064899 0.908293
vt 0.064202 0.828257
vt 0.042431 0.441735
vt 0.041186 0.527959
vt 0.007234 0.527468
vt 0.008481 0.441206
vt 0.042561 0.433645
vt 0.008611 0.433039
vt 0.010639 0.324902
vt 0.044589 0.325531
vt 0.044397 0.335980
vt 0.010447 0.335353
vt 0.052108 0.343034
vt 0.049388 0.429243
vt 0.002482 0.342123
vt 0.001945 0.428372
vt 0.946397 0.453620
vt 0.944529 0.337161
vt 0.980943 0.336576
vt 0.982810 0.452976
vt 0.946603 0.464486
vt 0.983013 0.463718
vt 0.985863 0.590918
vt 0.949453 0.591722
vt 0.949214 0.580918
vt 0.985627 0.580117
vt 0.938413 0.581152
vt 0.935797 0.464736
vt 0.996434 0.579882
vt 0.993810 0.463467
vt 0.003251 0.751918
vt 0.014059 0.752049
vt 0.012745 0.868469
vt 0.001945 0.868356
vt 0.014187 0.741245
vt 0.050604 0.741670
vt 0.050476 0.752476
vt 0.061277 0.752607
vt 0.059972 0.869044
vt 0.049162 0.868930
vt 0.048998 0.879797
vt 0.012584 0.879210
vt 0.046928 0.996253
vt 0.010514 0.995606
vt 0.985611 0.910124
vt 0.983052 0.996320
vt 0.948329 0.995289
vt 0.950888 0.909058
vt 0.985864 0.902034
vt 0.951145 0.900895
vt 0.954778 0.792802
vt 0.989497 0.793961
vt 0.989151 0.804406
vt 0.954429 0.803248
vt 0.996756 0.811575
vt 0.992757 0.897733
vt 0.946363 0.809899
vt 0.944552 0.896131
# 46 polygons
usemtl initialShadingGroup
s off
g group2 pCube3
f 1/77/1 2/82/2 4/85/3 3/78/4
f 3/78/5 4/85/6 6/86/7 5/87/8
f 5/87/9 6/86/10 8/88/11 7/89/12
f 7/80/13 8/81/14 2/82/15 1/77/16
f 2/82/17 8/83/18 6/84/19 4/85/20
f 7/76/21 1/77/22 3/78/23 5/79/24
g group2 pCube4
f 9/57/25 10/56/26 12/52/27 11/53/28
f 11/53/29 12/52/30 14/48/31 13/51/32
f 13/51/33 14/48/34 16/49/35 15/50/36
f 15/54/37 16/55/38 10/56/39 9/57/40
f 10/56/41 16/58/42 14/59/43 12/52/44
f 15/60/45 9/57/46 11/53/47 13/61/48
s 1
g group2 pCube1
f 17/14/49 18/1/50 21/2/51 20/13/52
f 18/1/50 19/4/53 22/5/54 21/2/51
s 2
f 20/13/55 21/2/56 24/3/57 23/16/58
f 21/2/56 22/5/59 25/8/60 24/3/57
s 3
f 23/16/61 24/3/62 27/10/63 26/15/64
f 24/3/62 25/8/65 28/9/66 27/10/63
s 4
f 26/19/67 27/11/68 18/1/69 17/14/70
f 27/11/68 28/12/71 19/4/72 18/1/69
s off
f 19/6/73 28/7/74 25/8/75 22/5/76
f 26/17/77 17/18/78 20/13/79 23/16/80
g group2 pCube2
f 29/71/81 30/70/82 32/66/83 31/67/84
f 31/67/85 32/66/86 34/62/87 33/65/88
f 33/65/89 34/62/90 36/63/91 35/64/92
f 35/68/93 36/69/94 30/70/95 29/71/96
f 30/70/97 36/72/98 34/73/99 32/66/100
f 35/74/101 29/71/102 31/67/103 33/75/104
g group2 pCube7
f 37/39/105 38/38/106 40/34/107 39/37/108
f 39/37/109 40/34/110 42/35/111 41/36/112
f 41/40/113 42/41/114 44/42/115 43/43/116
f 43/43/117 44/42/118 38/38/119 37/39/120
f 38/38/121 44/42/122 42/44/123 40/45/124
f 43/43/125 37/39/126 39/46/127 41/47/128
g group2 pCube6
f 45/25/129 46/24/130 48/20/131 47/23/132
f 47/23/133 48/20/134 50/21/135 49/22/136
f 49/26/137 50/27/138 52/28/139 51/29/140
f 51/29/141 52/28/142 46/24/143 45/25/144
f 46/24/145 52/28/146 50/30/147 48/31/148
f 51/29/149 45/25/150 47/32/151 49/33/152
g group2 pCube5
f 53/99/153 54/98/154 56/94/155 55/95/156
f 55/95/157 56/94/158 58/90/159 57/93/160
f 57/93/161 58/90/162 60/91/163 59/92/164
f 59/96/165 60/97/166 54/98/167 53/99/168
f 54/98/169 60/100/170 58/101/171 56/94/172
f 59/102/173 53/99/174 55/95/175 57/103/176
# totals: 60 103 176 46
